<svg width="47" height="47" viewBox="0 0 47 47" fill="none" xmlns="http://www.w3.org/2000/svg">
<path d="M23.535 0.316895C10.7132 0.316895 0.316895 10.7132 0.316895 23.535C0.316895 36.3568 10.7132 46.7531 23.535 46.7531C36.3568 46.7531 46.7531 36.3568 46.7531 23.535C46.7531 10.7132 36.3568 0.316895 23.535 0.316895ZM33.5634 15.9529L22.6488 31.0861C22.4962 31.299 22.2951 31.4725 22.0622 31.5922C21.8292 31.7119 21.571 31.7743 21.3091 31.7743C21.0472 31.7743 20.789 31.7119 20.556 31.5922C20.323 31.4725 20.1219 31.299 19.9694 31.0861L13.5067 22.1305C13.3097 21.8559 13.5067 21.4723 13.8435 21.4723H16.2742C16.8028 21.4723 17.3055 21.7263 17.6165 22.1616L21.3065 27.2821L29.4536 15.9839C29.7645 15.5538 30.2621 15.2947 30.7959 15.2947H33.2265C33.5634 15.2947 33.7603 15.6782 33.5634 15.9529Z" fill="#00CDAC"/>
</svg>
