<svg width="48" height="48" viewBox="0 0 48 48" fill="none" xmlns="http://www.w3.org/2000/svg">
<path d="M24.0601 47.4434C11.1455 47.4434 0.676758 36.9747 0.676758 24.0601C0.676758 11.1455 11.1455 0.676758 24.0601 0.676758C36.9747 0.676758 47.4434 11.1455 47.4434 24.0601C47.4434 36.9747 36.9747 47.4434 24.0601 47.4434ZM19.5003 21.7218C19.7029 20.7272 20.1609 19.8025 20.8293 19.0387C21.4978 18.2749 22.3535 17.6983 23.3124 17.3656C24.2713 17.0329 25.3003 16.9556 26.2982 17.1413C27.296 17.327 28.2283 17.7693 29.0033 18.4247L32.9808 15.7754C31.615 14.2876 29.8499 13.2244 27.8962 12.7126C25.9425 12.2007 23.8828 12.262 21.9629 12.8889C20.0431 13.5159 18.3443 14.6821 17.0692 16.2483C15.7941 17.8146 14.9968 19.7147 14.7722 21.7218H12.3684V26.3984H14.7699C14.994 28.406 15.7913 30.3067 17.0665 31.8734C18.3417 33.4401 20.0409 34.6066 21.9612 35.2337C23.8815 35.8607 25.9417 35.9217 27.8958 35.4095C29.8498 34.8972 31.6151 33.8333 32.9808 32.3448L29.0033 29.6931C28.2285 30.3485 27.2963 30.7909 26.2987 30.9767C25.301 31.1626 24.2721 31.0855 23.3132 30.753C22.3544 30.4206 21.4986 29.8443 20.83 29.0807C20.1615 28.3172 19.7032 27.3928 19.5003 26.3984L31.0751 26.4008V21.7241H19.5003V21.7218Z" fill="#00CDAC"/>
</svg>
