<svg width="46" height="46" viewBox="0 0 46 46" fill="none" xmlns="http://www.w3.org/2000/svg">
<path d="M22.875 0C10.2415 0 0 10.2415 0 22.875C0 35.5085 10.2415 45.75 22.875 45.75C35.5085 45.75 45.75 35.5085 45.75 22.875C45.75 10.2415 35.5085 0 22.875 0ZM27.9376 13.0961C30.6557 13.0536 33.1139 14.5313 34.2792 17.0505C35.3571 20.381 34.455 23.7691 32.554 26.3225C31.2992 28.054 29.7996 29.5473 28.2664 30.852C26.8559 32.165 23.6987 34.7633 22.862 34.8354C22.1225 34.6941 21.2922 33.8564 20.7051 33.426C17.406 30.9181 13.8553 27.8696 12.0546 24.535C10.5448 21.3336 10.5421 17.3727 12.8918 14.9183C15.9387 12.1715 20.5317 12.7091 22.862 15.5788C23.4878 14.767 24.2575 14.1276 25.1709 13.6624C26.0965 13.293 27.0315 13.1102 27.9376 13.0961Z" fill="#00CDAC"/>
</svg>
