<svg width="32" height="33" viewBox="0 0 32 33" fill="none" xmlns="http://www.w3.org/2000/svg">
<path d="M3.5222 20.6489L3.54076 20.6674C3.54168 20.6684 3.54274 20.6692 3.54366 20.6701C3.54545 20.6719 3.54675 20.6741 3.54853 20.6758L14.8623 31.9899C15.4903 32.6179 16.5084 32.6179 17.1364 31.9899L28.4527 20.6735C28.4554 20.6708 28.4578 20.6678 28.4605 20.6652L28.4769 20.6492C30.3812 18.7343 31.5908 16.2377 31.9133 13.5563C32.2358 10.875 31.6528 8.16272 30.257 5.85072C28.8612 3.53872 26.7326 1.75961 24.2096 0.796413C21.6866 -0.166787 18.9141 -0.259084 16.3327 0.534468C16.1155 0.600878 15.8833 0.600878 15.6661 0.534468C13.0849 -0.258764 10.3125 -0.166464 7.78971 0.796896C5.2669 1.76026 3.13853 3.5392 1.74278 5.85104C0.347021 8.16288 -0.236044 10.875 0.0863626 13.5562C0.408769 16.2374 1.61816 18.7339 3.5222 20.6489ZM24.0244 12.4367C24.0851 12.376 24.1331 12.304 24.1659 12.2249C24.1987 12.1458 24.2156 12.0609 24.2156 11.9752C24.1934 9.77717 23.5723 7.62693 22.4189 5.75568C22.3927 5.71323 22.3806 5.66354 22.3844 5.61386C22.3881 5.56417 22.4074 5.5169 22.4396 5.47879C22.4718 5.44067 22.5153 5.41382 22.5637 5.40192C22.6121 5.39002 22.6631 5.39372 22.7093 5.41254C23.5763 5.77723 24.364 6.3074 25.0282 6.97327C26.3895 8.33478 27.1547 10.1809 27.156 12.1062C27.1572 14.0315 26.3943 15.8786 25.0348 17.2418L17.1364 25.1395C16.5084 25.7674 15.4903 25.7674 14.8623 25.1395L6.96431 17.2418C5.60458 15.8788 4.84142 14.0316 4.8427 12.1062C4.84383 10.1809 5.60924 8.33478 6.97059 6.97327C7.63486 6.30739 8.42246 5.77723 9.28934 5.41253C9.33565 5.39372 9.38662 5.39002 9.43502 5.40192C9.48343 5.41382 9.52684 5.44084 9.55916 5.47878C9.59132 5.5169 9.61078 5.56417 9.61448 5.61402C9.61818 5.66371 9.60612 5.71339 9.57991 5.75585C8.42632 7.62693 7.80482 9.77716 7.78231 11.9752C7.78231 12.0609 7.79936 12.1458 7.83232 12.225C7.86528 12.3043 7.91352 12.3762 7.97431 12.4368L12.2479 16.9698C12.2905 17.0053 12.3441 17.0248 12.3996 17.0248C12.4549 17.0248 12.5086 17.0053 12.551 16.9698C12.5936 16.9344 12.6223 16.8851 12.6322 16.8305C12.6422 16.776 12.6327 16.7199 12.6054 16.6717C10.9456 13.6681 12.3729 9.35377 14.753 6.97327L14.7656 6.96073C15.0941 6.63575 15.5376 6.45356 15.9997 6.45372C16.4618 6.45388 16.9052 6.6364 17.2334 6.96154L17.245 6.97327C19.626 9.35377 21.0526 13.6676 19.3925 16.671C19.3652 16.7193 19.3557 16.7754 19.3656 16.8299C19.3756 16.8844 19.4043 16.9338 19.4468 16.9692C19.4894 17.0047 19.543 17.0242 19.5984 17.0242C19.6538 17.0242 19.7074 17.0047 19.75 16.9692L24.0244 12.4367Z" fill="url(#paint0_linear)"/>
<defs>
<linearGradient id="paint0_linear" x1="32" y1="16.5635" x2="-0.000265581" y2="16.5635" gradientUnits="userSpaceOnUse">
<stop stop-color="#02AAB0"/>
<stop offset="1" stop-color="#00CDAC"/>
</linearGradient>
</defs>
</svg>
